<?xml version="1.0" encoding="iso-8859-1"?>
<!-- Generator: Adobe Illustrator 17.1.0, SVG Export Plug-In . SVG Version: 6.00 Build 0)  -->
<!DOCTYPE svg PUBLIC "-//W3C//DTD SVG 1.1//EN" "http://www.w3.org/Graphics/SVG/1.1/DTD/svg11.dtd">
<svg version="1.1" id="Capa_1" xmlns="http://www.w3.org/2000/svg" xmlns:xlink="http://www.w3.org/1999/xlink" x="0px" y="0px"
	 viewBox="0 0 357.583 357.583" style="enable-background:new 0 0 357.583 357.583;" xml:space="preserve">
<g>
	<path d="M351.119,27.479c-4.174-4.177-9.713-6.687-15.597-6.687H22.061c-5.884,0-11.423,2.51-15.597,6.687
		C2.29,31.655-0.005,37.301,0,43.186l0.229,271.361c0.011,12.165,9.917,22.245,22.083,22.245h312.958
		c12.167,0,22.073-10.027,22.082-22.192l0.23-271.348C357.588,37.366,355.293,31.655,351.119,27.479z M324.344,301.72
		c0,1.144-0.928,2.071-2.072,2.071H35.416c-1.145,0-2.072-0.927-2.072-2.071V115.863c0-1.144,0.928-2.071,2.072-2.071h286.855
		c1.145,0,2.072,0.927,2.072,2.071V301.72z"/>
	<path d="M71.344,196.792h33c8.272,0,15-6.729,15-15v-27c0-8.271-6.728-15-15-15h-33c-8.271,0-15,6.729-15,15v27
		C56.344,190.063,63.072,196.792,71.344,196.792z"/>
	<path d="M162.344,196.792h33c8.271,0,15-6.729,15-15v-27c0-8.271-6.729-15-15-15h-33c-8.271,0-15,6.729-15,15v27
		C147.344,190.063,154.072,196.792,162.344,196.792z"/>
	<path d="M254.344,196.792h33c8.271,0,15-6.729,15-15v-27c0-8.271-6.729-15-15-15h-33c-8.271,0-15,6.729-15,15v27
		C239.344,190.063,246.072,196.792,254.344,196.792z"/>
	<path d="M71.344,279.792h33c8.272,0,15-6.728,15-15v-27c0-8.271-6.728-15-15-15h-33c-8.271,0-15,6.729-15,15v27
		C56.344,273.063,63.072,279.792,71.344,279.792z"/>
	<path d="M162.344,279.792h33c8.271,0,15-6.728,15-15v-27c0-8.271-6.729-15-15-15h-33c-8.271,0-15,6.729-15,15v27
		C147.344,273.063,154.072,279.792,162.344,279.792z"/>
	<path d="M254.344,279.792h33c8.271,0,15-6.728,15-15v-27c0-8.271-6.729-15-15-15h-33c-8.271,0-15,6.729-15,15v27
		C239.344,273.063,246.072,279.792,254.344,279.792z"/>
</g>
<g>
</g>
<g>
</g>
<g>
</g>
<g>
</g>
<g>
</g>
<g>
</g>
<g>
</g>
<g>
</g>
<g>
</g>
<g>
</g>
<g>
</g>
<g>
</g>
<g>
</g>
<g>
</g>
<g>
</g>
</svg>
