<?xml version="1.0" encoding="iso-8859-1"?>
<!-- Generator: Adobe Illustrator 19.0.0, SVG Export Plug-In . SVG Version: 6.00 Build 0)  -->
<svg version="1.1" id="Layer_1" xmlns="http://www.w3.org/2000/svg" xmlns:xlink="http://www.w3.org/1999/xlink" x="0px" y="0px"
	 viewBox="0 0 512 512" style="enable-background:new 0 0 512 512;" xml:space="preserve">
<g>
	<g>
		<path d="M46.545,62.061C20.88,62.061,0,82.941,0,108.606s20.88,46.545,46.545,46.545s46.545-20.88,46.545-46.545
			S72.211,62.061,46.545,62.061z"/>
	</g>
</g>
<g>
	<g>
		<path d="M46.545,356.849C20.88,356.849,0,377.729,0,403.394c0,25.665,20.88,46.545,46.545,46.545s46.545-20.88,46.545-46.545
			C93.091,377.729,72.211,356.849,46.545,356.849z"/>
	</g>
</g>
<g>
	<g>
		<path d="M46.545,209.455C20.88,209.455,0,230.335,0,256s20.88,46.545,46.545,46.545S93.091,281.665,93.091,256
			S72.211,209.455,46.545,209.455z"/>
	</g>
</g>
<g>
	<g>
		<rect x="131.879" y="232.727" width="380.121" height="46.545"/>
	</g>
</g>
<g>
	<g>
		<rect x="131.879" y="380.121" width="380.121" height="46.545"/>
	</g>
</g>
<g>
	<g>
		<rect x="131.879" y="85.333" width="380.121" height="46.545"/>
	</g>
</g>
<g>
</g>
<g>
</g>
<g>
</g>
<g>
</g>
<g>
</g>
<g>
</g>
<g>
</g>
<g>
</g>
<g>
</g>
<g>
</g>
<g>
</g>
<g>
</g>
<g>
</g>
<g>
</g>
<g>
</g>
</svg>
