<svg xmlns="http://www.w3.org/2000/svg" width="20" height="20" viewBox="0 0 20 20">
    <path fill="#000" d="M19.81 10.147l-2.104-2.013-7.283-6.965C10.305 1.056 10.15 1 10 1c-.152 0-.305.057-.423.17L4.64 5.89.19 10.147c-.245.233-.254.623-.02.867.121.126.28.19.443.19.152 0 .305-.056.423-.17l1.07-1.022v9.15c0 .338.273.613.612.613h4.596c.338 0 .612-.275.612-.613l-.001-4.82c0-1.143.93-2.075 2.075-2.075 1.144 0 2.075.93 2.075 2.076v4.819c0 .338.275.613.613.613h4.596c.338 0 .612-.275.612-.613l-.001-9.152 1.069 1.023c.244.233.631.225.866-.02.234-.243.225-.631-.02-.866z"/>
</svg>
